<mxfile host="app.diagrams.net" modified="2023-06-13T03:46:06.153Z" agent="Mozilla/5.0 (Windows NT 10.0; Win64; x64) AppleWebKit/537.36 (KHTML, like Gecko) Chrome/114.0.0.0 Safari/537.36" etag="Sq_DMUF0GLlj4XIJ5pyj" version="21.3.8" type="github">
  <diagram id="C5RBs43oDa-KdzZeNtuy" name="Page-1">
    <mxGraphModel dx="1434" dy="800" grid="1" gridSize="10" guides="1" tooltips="1" connect="1" arrows="1" fold="1" page="1" pageScale="1" pageWidth="827" pageHeight="1169" math="0" shadow="0">
      <root>
        <mxCell id="WIyWlLk6GJQsqaUBKTNV-0" />
        <mxCell id="WIyWlLk6GJQsqaUBKTNV-1" parent="WIyWlLk6GJQsqaUBKTNV-0" />
        <mxCell id="d1PBhEWN59_eSyJ3hZOR-18" style="edgeStyle=orthogonalEdgeStyle;rounded=0;orthogonalLoop=1;jettySize=auto;html=1;exitX=0.5;exitY=1;exitDx=0;exitDy=0;entryX=0.5;entryY=0;entryDx=0;entryDy=0;" edge="1" parent="WIyWlLk6GJQsqaUBKTNV-1" source="WIyWlLk6GJQsqaUBKTNV-3" target="d1PBhEWN59_eSyJ3hZOR-5">
          <mxGeometry relative="1" as="geometry" />
        </mxCell>
        <mxCell id="d1PBhEWN59_eSyJ3hZOR-19" style="edgeStyle=orthogonalEdgeStyle;rounded=0;orthogonalLoop=1;jettySize=auto;html=1;exitX=0.5;exitY=1;exitDx=0;exitDy=0;entryX=0.5;entryY=0;entryDx=0;entryDy=0;" edge="1" parent="WIyWlLk6GJQsqaUBKTNV-1" source="WIyWlLk6GJQsqaUBKTNV-3" target="d1PBhEWN59_eSyJ3hZOR-7">
          <mxGeometry relative="1" as="geometry" />
        </mxCell>
        <mxCell id="d1PBhEWN59_eSyJ3hZOR-20" style="edgeStyle=orthogonalEdgeStyle;rounded=0;orthogonalLoop=1;jettySize=auto;html=1;exitX=0.5;exitY=1;exitDx=0;exitDy=0;" edge="1" parent="WIyWlLk6GJQsqaUBKTNV-1" source="WIyWlLk6GJQsqaUBKTNV-3" target="d1PBhEWN59_eSyJ3hZOR-6">
          <mxGeometry relative="1" as="geometry" />
        </mxCell>
        <mxCell id="WIyWlLk6GJQsqaUBKTNV-3" value="Web製票維護" style="rounded=1;whiteSpace=wrap;html=1;fontSize=12;glass=0;strokeWidth=1;shadow=0;" parent="WIyWlLk6GJQsqaUBKTNV-1" vertex="1">
          <mxGeometry x="294" y="30" width="120" height="40" as="geometry" />
        </mxCell>
        <mxCell id="d1PBhEWN59_eSyJ3hZOR-64" style="edgeStyle=orthogonalEdgeStyle;rounded=0;orthogonalLoop=1;jettySize=auto;html=1;exitX=0.5;exitY=1;exitDx=0;exitDy=0;entryX=0.5;entryY=0;entryDx=0;entryDy=0;" edge="1" parent="WIyWlLk6GJQsqaUBKTNV-1" source="WIyWlLk6GJQsqaUBKTNV-12" target="d1PBhEWN59_eSyJ3hZOR-26">
          <mxGeometry relative="1" as="geometry" />
        </mxCell>
        <mxCell id="WIyWlLk6GJQsqaUBKTNV-12" value="AS400製票新增" style="rounded=1;whiteSpace=wrap;html=1;fontSize=12;glass=0;strokeWidth=1;shadow=0;" parent="WIyWlLk6GJQsqaUBKTNV-1" vertex="1">
          <mxGeometry x="470" y="720" width="120" height="40" as="geometry" />
        </mxCell>
        <mxCell id="d1PBhEWN59_eSyJ3hZOR-24" style="edgeStyle=orthogonalEdgeStyle;rounded=0;orthogonalLoop=1;jettySize=auto;html=1;exitX=0.5;exitY=1;exitDx=0;exitDy=0;entryX=0.5;entryY=0;entryDx=0;entryDy=0;" edge="1" parent="WIyWlLk6GJQsqaUBKTNV-1" source="d1PBhEWN59_eSyJ3hZOR-1" target="d1PBhEWN59_eSyJ3hZOR-8">
          <mxGeometry relative="1" as="geometry" />
        </mxCell>
        <mxCell id="d1PBhEWN59_eSyJ3hZOR-1" value="寫入AS400" style="rhombus;whiteSpace=wrap;html=1;shadow=0;fontFamily=Helvetica;fontSize=12;align=center;strokeWidth=1;spacing=6;spacingTop=-4;" vertex="1" parent="WIyWlLk6GJQsqaUBKTNV-1">
          <mxGeometry x="480" y="470" width="100" height="80" as="geometry" />
        </mxCell>
        <mxCell id="d1PBhEWN59_eSyJ3hZOR-22" style="edgeStyle=orthogonalEdgeStyle;rounded=0;orthogonalLoop=1;jettySize=auto;html=1;exitX=0.5;exitY=1;exitDx=0;exitDy=0;" edge="1" parent="WIyWlLk6GJQsqaUBKTNV-1" source="d1PBhEWN59_eSyJ3hZOR-2" target="d1PBhEWN59_eSyJ3hZOR-4">
          <mxGeometry relative="1" as="geometry" />
        </mxCell>
        <mxCell id="d1PBhEWN59_eSyJ3hZOR-2" value="Web資料異動" style="rounded=1;whiteSpace=wrap;html=1;fontSize=12;glass=0;strokeWidth=1;shadow=0;" vertex="1" parent="WIyWlLk6GJQsqaUBKTNV-1">
          <mxGeometry x="470" y="240" width="120" height="40" as="geometry" />
        </mxCell>
        <mxCell id="d1PBhEWN59_eSyJ3hZOR-39" value="" style="edgeStyle=orthogonalEdgeStyle;rounded=0;orthogonalLoop=1;jettySize=auto;html=1;" edge="1" parent="WIyWlLk6GJQsqaUBKTNV-1" source="d1PBhEWN59_eSyJ3hZOR-3" target="d1PBhEWN59_eSyJ3hZOR-16">
          <mxGeometry relative="1" as="geometry" />
        </mxCell>
        <mxCell id="d1PBhEWN59_eSyJ3hZOR-3" value="成功" style="rhombus;whiteSpace=wrap;html=1;shadow=0;fontFamily=Helvetica;fontSize=12;align=center;strokeWidth=1;spacing=6;spacingTop=-4;" vertex="1" parent="WIyWlLk6GJQsqaUBKTNV-1">
          <mxGeometry x="40" y="570" width="100" height="80" as="geometry" />
        </mxCell>
        <mxCell id="d1PBhEWN59_eSyJ3hZOR-23" style="edgeStyle=orthogonalEdgeStyle;rounded=0;orthogonalLoop=1;jettySize=auto;html=1;exitX=0.5;exitY=1;exitDx=0;exitDy=0;entryX=0.5;entryY=0;entryDx=0;entryDy=0;" edge="1" parent="WIyWlLk6GJQsqaUBKTNV-1" source="d1PBhEWN59_eSyJ3hZOR-4" target="d1PBhEWN59_eSyJ3hZOR-1">
          <mxGeometry relative="1" as="geometry" />
        </mxCell>
        <mxCell id="d1PBhEWN59_eSyJ3hZOR-44" style="edgeStyle=orthogonalEdgeStyle;rounded=0;orthogonalLoop=1;jettySize=auto;html=1;exitX=1;exitY=0.5;exitDx=0;exitDy=0;" edge="1" parent="WIyWlLk6GJQsqaUBKTNV-1" source="d1PBhEWN59_eSyJ3hZOR-4" target="d1PBhEWN59_eSyJ3hZOR-43">
          <mxGeometry relative="1" as="geometry" />
        </mxCell>
        <mxCell id="d1PBhEWN59_eSyJ3hZOR-4" value="成功" style="rhombus;whiteSpace=wrap;html=1;shadow=0;fontFamily=Helvetica;fontSize=12;align=center;strokeWidth=1;spacing=6;spacingTop=-4;" vertex="1" parent="WIyWlLk6GJQsqaUBKTNV-1">
          <mxGeometry x="480" y="320" width="100" height="80" as="geometry" />
        </mxCell>
        <mxCell id="d1PBhEWN59_eSyJ3hZOR-21" style="edgeStyle=orthogonalEdgeStyle;rounded=0;orthogonalLoop=1;jettySize=auto;html=1;exitX=0.5;exitY=1;exitDx=0;exitDy=0;entryX=0.417;entryY=0;entryDx=0;entryDy=0;entryPerimeter=0;" edge="1" parent="WIyWlLk6GJQsqaUBKTNV-1" source="d1PBhEWN59_eSyJ3hZOR-5" target="d1PBhEWN59_eSyJ3hZOR-2">
          <mxGeometry relative="1" as="geometry" />
        </mxCell>
        <mxCell id="d1PBhEWN59_eSyJ3hZOR-5" value="新增" style="rhombus;whiteSpace=wrap;html=1;shadow=0;fontFamily=Helvetica;fontSize=12;align=center;strokeWidth=1;spacing=6;spacingTop=-4;" vertex="1" parent="WIyWlLk6GJQsqaUBKTNV-1">
          <mxGeometry x="470" y="120" width="100" height="80" as="geometry" />
        </mxCell>
        <mxCell id="d1PBhEWN59_eSyJ3hZOR-34" style="edgeStyle=orthogonalEdgeStyle;rounded=0;orthogonalLoop=1;jettySize=auto;html=1;exitX=0.5;exitY=1;exitDx=0;exitDy=0;entryX=0.5;entryY=0;entryDx=0;entryDy=0;" edge="1" parent="WIyWlLk6GJQsqaUBKTNV-1" source="d1PBhEWN59_eSyJ3hZOR-6" target="d1PBhEWN59_eSyJ3hZOR-10">
          <mxGeometry relative="1" as="geometry" />
        </mxCell>
        <mxCell id="d1PBhEWN59_eSyJ3hZOR-6" value="修改" style="rhombus;whiteSpace=wrap;html=1;shadow=0;fontFamily=Helvetica;fontSize=12;align=center;strokeWidth=1;spacing=6;spacingTop=-4;" vertex="1" parent="WIyWlLk6GJQsqaUBKTNV-1">
          <mxGeometry x="40" y="120" width="100" height="80" as="geometry" />
        </mxCell>
        <mxCell id="d1PBhEWN59_eSyJ3hZOR-29" style="edgeStyle=orthogonalEdgeStyle;rounded=0;orthogonalLoop=1;jettySize=auto;html=1;exitX=0.5;exitY=1;exitDx=0;exitDy=0;entryX=0.5;entryY=0;entryDx=0;entryDy=0;" edge="1" parent="WIyWlLk6GJQsqaUBKTNV-1" source="d1PBhEWN59_eSyJ3hZOR-7" target="d1PBhEWN59_eSyJ3hZOR-14">
          <mxGeometry relative="1" as="geometry" />
        </mxCell>
        <mxCell id="d1PBhEWN59_eSyJ3hZOR-7" value="刪除" style="rhombus;whiteSpace=wrap;html=1;shadow=0;fontFamily=Helvetica;fontSize=12;align=center;strokeWidth=1;spacing=6;spacingTop=-4;" vertex="1" parent="WIyWlLk6GJQsqaUBKTNV-1">
          <mxGeometry x="304" y="120" width="100" height="80" as="geometry" />
        </mxCell>
        <mxCell id="d1PBhEWN59_eSyJ3hZOR-25" style="edgeStyle=orthogonalEdgeStyle;rounded=0;orthogonalLoop=1;jettySize=auto;html=1;exitX=0.5;exitY=1;exitDx=0;exitDy=0;entryX=0.5;entryY=0;entryDx=0;entryDy=0;" edge="1" parent="WIyWlLk6GJQsqaUBKTNV-1" source="d1PBhEWN59_eSyJ3hZOR-8" target="WIyWlLk6GJQsqaUBKTNV-12">
          <mxGeometry relative="1" as="geometry" />
        </mxCell>
        <mxCell id="d1PBhEWN59_eSyJ3hZOR-59" style="edgeStyle=orthogonalEdgeStyle;rounded=0;orthogonalLoop=1;jettySize=auto;html=1;entryX=0.5;entryY=1;entryDx=0;entryDy=0;" edge="1" parent="WIyWlLk6GJQsqaUBKTNV-1" source="d1PBhEWN59_eSyJ3hZOR-8" target="d1PBhEWN59_eSyJ3hZOR-43">
          <mxGeometry relative="1" as="geometry" />
        </mxCell>
        <mxCell id="d1PBhEWN59_eSyJ3hZOR-8" value="是否已關帳" style="rhombus;whiteSpace=wrap;html=1;shadow=0;fontFamily=Helvetica;fontSize=12;align=center;strokeWidth=1;spacing=6;spacingTop=-4;" vertex="1" parent="WIyWlLk6GJQsqaUBKTNV-1">
          <mxGeometry x="480" y="590" width="100" height="80" as="geometry" />
        </mxCell>
        <mxCell id="d1PBhEWN59_eSyJ3hZOR-38" style="edgeStyle=orthogonalEdgeStyle;rounded=0;orthogonalLoop=1;jettySize=auto;html=1;exitX=0.5;exitY=1;exitDx=0;exitDy=0;entryX=0.5;entryY=0;entryDx=0;entryDy=0;" edge="1" parent="WIyWlLk6GJQsqaUBKTNV-1" source="d1PBhEWN59_eSyJ3hZOR-9" target="d1PBhEWN59_eSyJ3hZOR-3">
          <mxGeometry relative="1" as="geometry" />
        </mxCell>
        <mxCell id="d1PBhEWN59_eSyJ3hZOR-9" value="Web資料異動" style="rounded=1;whiteSpace=wrap;html=1;fontSize=12;glass=0;strokeWidth=1;shadow=0;" vertex="1" parent="WIyWlLk6GJQsqaUBKTNV-1">
          <mxGeometry x="30" y="490" width="120" height="40" as="geometry" />
        </mxCell>
        <mxCell id="d1PBhEWN59_eSyJ3hZOR-36" style="edgeStyle=orthogonalEdgeStyle;rounded=0;orthogonalLoop=1;jettySize=auto;html=1;exitX=0.5;exitY=1;exitDx=0;exitDy=0;entryX=0.5;entryY=0;entryDx=0;entryDy=0;" edge="1" parent="WIyWlLk6GJQsqaUBKTNV-1" source="d1PBhEWN59_eSyJ3hZOR-10" target="d1PBhEWN59_eSyJ3hZOR-11">
          <mxGeometry relative="1" as="geometry" />
        </mxCell>
        <mxCell id="d1PBhEWN59_eSyJ3hZOR-10" value="寫入AS400" style="rhombus;whiteSpace=wrap;html=1;shadow=0;fontFamily=Helvetica;fontSize=12;align=center;strokeWidth=1;spacing=6;spacingTop=-4;" vertex="1" parent="WIyWlLk6GJQsqaUBKTNV-1">
          <mxGeometry x="40" y="240" width="100" height="80" as="geometry" />
        </mxCell>
        <mxCell id="d1PBhEWN59_eSyJ3hZOR-37" style="edgeStyle=orthogonalEdgeStyle;rounded=0;orthogonalLoop=1;jettySize=auto;html=1;exitX=0.5;exitY=1;exitDx=0;exitDy=0;" edge="1" parent="WIyWlLk6GJQsqaUBKTNV-1" source="d1PBhEWN59_eSyJ3hZOR-11" target="d1PBhEWN59_eSyJ3hZOR-9">
          <mxGeometry relative="1" as="geometry" />
        </mxCell>
        <mxCell id="d1PBhEWN59_eSyJ3hZOR-55" style="edgeStyle=orthogonalEdgeStyle;rounded=0;orthogonalLoop=1;jettySize=auto;html=1;exitX=1;exitY=0.5;exitDx=0;exitDy=0;entryX=0.5;entryY=0;entryDx=0;entryDy=0;" edge="1" parent="WIyWlLk6GJQsqaUBKTNV-1" source="d1PBhEWN59_eSyJ3hZOR-11" target="d1PBhEWN59_eSyJ3hZOR-53">
          <mxGeometry relative="1" as="geometry">
            <mxPoint x="230" y="480" as="targetPoint" />
          </mxGeometry>
        </mxCell>
        <mxCell id="d1PBhEWN59_eSyJ3hZOR-11" value="是否已入帳" style="rhombus;whiteSpace=wrap;html=1;shadow=0;fontFamily=Helvetica;fontSize=12;align=center;strokeWidth=1;spacing=6;spacingTop=-4;" vertex="1" parent="WIyWlLk6GJQsqaUBKTNV-1">
          <mxGeometry x="40" y="380" width="100" height="80" as="geometry" />
        </mxCell>
        <mxCell id="d1PBhEWN59_eSyJ3hZOR-32" style="edgeStyle=orthogonalEdgeStyle;rounded=0;orthogonalLoop=1;jettySize=auto;html=1;exitX=0.5;exitY=1;exitDx=0;exitDy=0;" edge="1" parent="WIyWlLk6GJQsqaUBKTNV-1" source="d1PBhEWN59_eSyJ3hZOR-12" target="d1PBhEWN59_eSyJ3hZOR-13">
          <mxGeometry relative="1" as="geometry" />
        </mxCell>
        <mxCell id="d1PBhEWN59_eSyJ3hZOR-12" value="Web資料異動" style="rounded=1;whiteSpace=wrap;html=1;fontSize=12;glass=0;strokeWidth=1;shadow=0;" vertex="1" parent="WIyWlLk6GJQsqaUBKTNV-1">
          <mxGeometry x="294" y="490" width="120" height="40" as="geometry" />
        </mxCell>
        <mxCell id="d1PBhEWN59_eSyJ3hZOR-33" style="edgeStyle=orthogonalEdgeStyle;rounded=0;orthogonalLoop=1;jettySize=auto;html=1;exitX=0.5;exitY=1;exitDx=0;exitDy=0;entryX=0.5;entryY=0;entryDx=0;entryDy=0;" edge="1" parent="WIyWlLk6GJQsqaUBKTNV-1" source="d1PBhEWN59_eSyJ3hZOR-13" target="d1PBhEWN59_eSyJ3hZOR-17">
          <mxGeometry relative="1" as="geometry" />
        </mxCell>
        <mxCell id="d1PBhEWN59_eSyJ3hZOR-13" value="成功" style="rhombus;whiteSpace=wrap;html=1;shadow=0;fontFamily=Helvetica;fontSize=12;align=center;strokeWidth=1;spacing=6;spacingTop=-4;" vertex="1" parent="WIyWlLk6GJQsqaUBKTNV-1">
          <mxGeometry x="304" y="580" width="100" height="80" as="geometry" />
        </mxCell>
        <mxCell id="d1PBhEWN59_eSyJ3hZOR-30" style="edgeStyle=orthogonalEdgeStyle;rounded=0;orthogonalLoop=1;jettySize=auto;html=1;exitX=0.5;exitY=1;exitDx=0;exitDy=0;" edge="1" parent="WIyWlLk6GJQsqaUBKTNV-1" source="d1PBhEWN59_eSyJ3hZOR-14" target="d1PBhEWN59_eSyJ3hZOR-15">
          <mxGeometry relative="1" as="geometry" />
        </mxCell>
        <mxCell id="d1PBhEWN59_eSyJ3hZOR-14" value="寫入AS400" style="rhombus;whiteSpace=wrap;html=1;shadow=0;fontFamily=Helvetica;fontSize=12;align=center;strokeWidth=1;spacing=6;spacingTop=-4;" vertex="1" parent="WIyWlLk6GJQsqaUBKTNV-1">
          <mxGeometry x="304" y="250" width="100" height="80" as="geometry" />
        </mxCell>
        <mxCell id="d1PBhEWN59_eSyJ3hZOR-31" style="edgeStyle=orthogonalEdgeStyle;rounded=0;orthogonalLoop=1;jettySize=auto;html=1;exitX=0.5;exitY=1;exitDx=0;exitDy=0;entryX=0.5;entryY=0;entryDx=0;entryDy=0;" edge="1" parent="WIyWlLk6GJQsqaUBKTNV-1" source="d1PBhEWN59_eSyJ3hZOR-15" target="d1PBhEWN59_eSyJ3hZOR-12">
          <mxGeometry relative="1" as="geometry" />
        </mxCell>
        <mxCell id="d1PBhEWN59_eSyJ3hZOR-54" style="edgeStyle=orthogonalEdgeStyle;rounded=0;orthogonalLoop=1;jettySize=auto;html=1;exitX=0;exitY=0.5;exitDx=0;exitDy=0;" edge="1" parent="WIyWlLk6GJQsqaUBKTNV-1" source="d1PBhEWN59_eSyJ3hZOR-15" target="d1PBhEWN59_eSyJ3hZOR-53">
          <mxGeometry relative="1" as="geometry" />
        </mxCell>
        <mxCell id="d1PBhEWN59_eSyJ3hZOR-15" value="是否已入帳" style="rhombus;whiteSpace=wrap;html=1;shadow=0;fontFamily=Helvetica;fontSize=12;align=center;strokeWidth=1;spacing=6;spacingTop=-4;" vertex="1" parent="WIyWlLk6GJQsqaUBKTNV-1">
          <mxGeometry x="304" y="380" width="100" height="80" as="geometry" />
        </mxCell>
        <mxCell id="d1PBhEWN59_eSyJ3hZOR-62" style="edgeStyle=orthogonalEdgeStyle;rounded=0;orthogonalLoop=1;jettySize=auto;html=1;exitX=0.5;exitY=1;exitDx=0;exitDy=0;entryX=0.5;entryY=0;entryDx=0;entryDy=0;" edge="1" parent="WIyWlLk6GJQsqaUBKTNV-1" source="d1PBhEWN59_eSyJ3hZOR-16" target="d1PBhEWN59_eSyJ3hZOR-26">
          <mxGeometry relative="1" as="geometry">
            <mxPoint x="350" y="810" as="targetPoint" />
            <Array as="points">
              <mxPoint x="90" y="810" />
              <mxPoint x="354" y="810" />
            </Array>
          </mxGeometry>
        </mxCell>
        <mxCell id="d1PBhEWN59_eSyJ3hZOR-16" value="AS400製票更新" style="rounded=1;whiteSpace=wrap;html=1;fontSize=12;glass=0;strokeWidth=1;shadow=0;" vertex="1" parent="WIyWlLk6GJQsqaUBKTNV-1">
          <mxGeometry x="30" y="720" width="120" height="40" as="geometry" />
        </mxCell>
        <mxCell id="d1PBhEWN59_eSyJ3hZOR-63" style="edgeStyle=orthogonalEdgeStyle;rounded=0;orthogonalLoop=1;jettySize=auto;html=1;exitX=0.5;exitY=1;exitDx=0;exitDy=0;" edge="1" parent="WIyWlLk6GJQsqaUBKTNV-1" source="d1PBhEWN59_eSyJ3hZOR-17" target="d1PBhEWN59_eSyJ3hZOR-26">
          <mxGeometry relative="1" as="geometry" />
        </mxCell>
        <mxCell id="d1PBhEWN59_eSyJ3hZOR-17" value="AS400製票刪除" style="rounded=1;whiteSpace=wrap;html=1;fontSize=12;glass=0;strokeWidth=1;shadow=0;" vertex="1" parent="WIyWlLk6GJQsqaUBKTNV-1">
          <mxGeometry x="294" y="710" width="120" height="40" as="geometry" />
        </mxCell>
        <mxCell id="d1PBhEWN59_eSyJ3hZOR-66" style="edgeStyle=orthogonalEdgeStyle;rounded=0;orthogonalLoop=1;jettySize=auto;html=1;exitX=0.5;exitY=1;exitDx=0;exitDy=0;" edge="1" parent="WIyWlLk6GJQsqaUBKTNV-1" source="d1PBhEWN59_eSyJ3hZOR-26" target="d1PBhEWN59_eSyJ3hZOR-61">
          <mxGeometry relative="1" as="geometry" />
        </mxCell>
        <mxCell id="d1PBhEWN59_eSyJ3hZOR-67" style="edgeStyle=orthogonalEdgeStyle;rounded=0;orthogonalLoop=1;jettySize=auto;html=1;exitX=1;exitY=0.5;exitDx=0;exitDy=0;" edge="1" parent="WIyWlLk6GJQsqaUBKTNV-1" source="d1PBhEWN59_eSyJ3hZOR-26" target="d1PBhEWN59_eSyJ3hZOR-28">
          <mxGeometry relative="1" as="geometry" />
        </mxCell>
        <mxCell id="d1PBhEWN59_eSyJ3hZOR-26" value="成功" style="rhombus;whiteSpace=wrap;html=1;shadow=0;fontFamily=Helvetica;fontSize=12;align=center;strokeWidth=1;spacing=6;spacingTop=-4;" vertex="1" parent="WIyWlLk6GJQsqaUBKTNV-1">
          <mxGeometry x="304" y="860" width="100" height="80" as="geometry" />
        </mxCell>
        <mxCell id="d1PBhEWN59_eSyJ3hZOR-28" value="重拋機制??" style="rounded=1;whiteSpace=wrap;html=1;fontSize=12;glass=0;strokeWidth=1;shadow=0;fillColor=#f8cecc;strokeColor=#b85450;" vertex="1" parent="WIyWlLk6GJQsqaUBKTNV-1">
          <mxGeometry x="480" y="880" width="120" height="40" as="geometry" />
        </mxCell>
        <mxCell id="d1PBhEWN59_eSyJ3hZOR-43" value="提示錯誤訊息!!" style="rounded=1;whiteSpace=wrap;html=1;fontSize=12;glass=0;strokeWidth=1;shadow=0;" vertex="1" parent="WIyWlLk6GJQsqaUBKTNV-1">
          <mxGeometry x="640" y="340" width="120" height="40" as="geometry" />
        </mxCell>
        <mxCell id="d1PBhEWN59_eSyJ3hZOR-45" value="No" style="text;html=1;strokeColor=none;fillColor=none;align=center;verticalAlign=middle;whiteSpace=wrap;rounded=0;" vertex="1" parent="WIyWlLk6GJQsqaUBKTNV-1">
          <mxGeometry x="580" y="330" width="60" height="30" as="geometry" />
        </mxCell>
        <mxCell id="d1PBhEWN59_eSyJ3hZOR-46" value="Yes" style="text;html=1;strokeColor=none;fillColor=none;align=center;verticalAlign=middle;whiteSpace=wrap;rounded=0;" vertex="1" parent="WIyWlLk6GJQsqaUBKTNV-1">
          <mxGeometry x="540" y="420" width="60" height="30" as="geometry" />
        </mxCell>
        <mxCell id="d1PBhEWN59_eSyJ3hZOR-47" value="Yes" style="text;html=1;strokeColor=none;fillColor=none;align=center;verticalAlign=middle;whiteSpace=wrap;rounded=0;" vertex="1" parent="WIyWlLk6GJQsqaUBKTNV-1">
          <mxGeometry x="354" y="340" width="60" height="30" as="geometry" />
        </mxCell>
        <mxCell id="d1PBhEWN59_eSyJ3hZOR-48" value="Yes" style="text;html=1;strokeColor=none;fillColor=none;align=center;verticalAlign=middle;whiteSpace=wrap;rounded=0;" vertex="1" parent="WIyWlLk6GJQsqaUBKTNV-1">
          <mxGeometry x="354" y="210" width="60" height="30" as="geometry" />
        </mxCell>
        <mxCell id="d1PBhEWN59_eSyJ3hZOR-49" value="Yes" style="text;html=1;strokeColor=none;fillColor=none;align=center;verticalAlign=middle;whiteSpace=wrap;rounded=0;" vertex="1" parent="WIyWlLk6GJQsqaUBKTNV-1">
          <mxGeometry x="90" y="210" width="60" height="30" as="geometry" />
        </mxCell>
        <mxCell id="d1PBhEWN59_eSyJ3hZOR-50" value="Yes" style="text;html=1;strokeColor=none;fillColor=none;align=center;verticalAlign=middle;whiteSpace=wrap;rounded=0;" vertex="1" parent="WIyWlLk6GJQsqaUBKTNV-1">
          <mxGeometry x="80" y="330" width="60" height="30" as="geometry" />
        </mxCell>
        <mxCell id="d1PBhEWN59_eSyJ3hZOR-51" value="No" style="text;html=1;strokeColor=none;fillColor=none;align=center;verticalAlign=middle;whiteSpace=wrap;rounded=0;" vertex="1" parent="WIyWlLk6GJQsqaUBKTNV-1">
          <mxGeometry x="344" y="460" width="60" height="30" as="geometry" />
        </mxCell>
        <mxCell id="d1PBhEWN59_eSyJ3hZOR-52" value="No" style="text;html=1;strokeColor=none;fillColor=none;align=center;verticalAlign=middle;whiteSpace=wrap;rounded=0;" vertex="1" parent="WIyWlLk6GJQsqaUBKTNV-1">
          <mxGeometry x="80" y="460" width="60" height="30" as="geometry" />
        </mxCell>
        <mxCell id="d1PBhEWN59_eSyJ3hZOR-53" value="提示已入帳&lt;br&gt;不能異動" style="rounded=1;whiteSpace=wrap;html=1;fontSize=12;glass=0;strokeWidth=1;shadow=0;" vertex="1" parent="WIyWlLk6GJQsqaUBKTNV-1">
          <mxGeometry x="170" y="490" width="120" height="40" as="geometry" />
        </mxCell>
        <mxCell id="d1PBhEWN59_eSyJ3hZOR-56" value="Yes" style="text;html=1;strokeColor=none;fillColor=none;align=center;verticalAlign=middle;whiteSpace=wrap;rounded=0;" vertex="1" parent="WIyWlLk6GJQsqaUBKTNV-1">
          <mxGeometry x="260" y="390" width="60" height="30" as="geometry" />
        </mxCell>
        <mxCell id="d1PBhEWN59_eSyJ3hZOR-57" value="Yes" style="text;html=1;strokeColor=none;fillColor=none;align=center;verticalAlign=middle;whiteSpace=wrap;rounded=0;" vertex="1" parent="WIyWlLk6GJQsqaUBKTNV-1">
          <mxGeometry x="120" y="390" width="60" height="30" as="geometry" />
        </mxCell>
        <mxCell id="d1PBhEWN59_eSyJ3hZOR-58" value="No" style="text;html=1;strokeColor=none;fillColor=none;align=center;verticalAlign=middle;whiteSpace=wrap;rounded=0;" vertex="1" parent="WIyWlLk6GJQsqaUBKTNV-1">
          <mxGeometry x="520" y="680" width="60" height="30" as="geometry" />
        </mxCell>
        <mxCell id="d1PBhEWN59_eSyJ3hZOR-60" value="Yes" style="text;html=1;strokeColor=none;fillColor=none;align=center;verticalAlign=middle;whiteSpace=wrap;rounded=0;" vertex="1" parent="WIyWlLk6GJQsqaUBKTNV-1">
          <mxGeometry x="600" y="595" width="60" height="30" as="geometry" />
        </mxCell>
        <mxCell id="d1PBhEWN59_eSyJ3hZOR-61" value="結束" style="ellipse;whiteSpace=wrap;html=1;" vertex="1" parent="WIyWlLk6GJQsqaUBKTNV-1">
          <mxGeometry x="304" y="980" width="100" height="50" as="geometry" />
        </mxCell>
        <mxCell id="d1PBhEWN59_eSyJ3hZOR-68" value="Yes" style="text;html=1;strokeColor=none;fillColor=none;align=center;verticalAlign=middle;whiteSpace=wrap;rounded=0;" vertex="1" parent="WIyWlLk6GJQsqaUBKTNV-1">
          <mxGeometry x="354" y="950" width="60" height="30" as="geometry" />
        </mxCell>
        <mxCell id="d1PBhEWN59_eSyJ3hZOR-69" value="No" style="text;html=1;strokeColor=none;fillColor=none;align=center;verticalAlign=middle;whiteSpace=wrap;rounded=0;" vertex="1" parent="WIyWlLk6GJQsqaUBKTNV-1">
          <mxGeometry x="413.5" y="870" width="60" height="30" as="geometry" />
        </mxCell>
      </root>
    </mxGraphModel>
  </diagram>
</mxfile>
